PathFileType	4	(X/Y/Z)	 s06c0301.trc
DataRate	CameraRate	NumFrames	NumMarkers	Units	OrigDataRate	OrigDataStartFrame	OrigNumFrames
200	200	6	48	mm	200	1001	2000
Frame#	Time	racr			lacr			c7			jug			rlel			rdr			llel			ldr			s2			lic			ric			lasi			rasi			rpsi			lpsi			rgt			lgt			rth1			rth2			rth3			rth4			rlfc			rmfc			rsh1			rsh2			rsh3			rsh4			rlmal			rcal			rtoe			rmt5			lth1			lth2			lth4			lth3			llfc			lmfc			llmal			lcal			lmt5			lsh1			lsh2			lsh3			lsh4			ltoe			SBIKE			LBIKE			RBIKE			
		X1	Y1	Z1	X2	Y2	Z2	X3	Y3	Z3	X4	Y4	Z4	X5	Y5	Z5	X6	Y6	Z6	X7	Y7	Z7	X8	Y8	Z8	X9	Y9	Z9	X10	Y10	Z10	X11	Y11	Z11	X12	Y12	Z12	X13	Y13	Z13	X14	Y14	Z14	X15	Y15	Z15	X16	Y16	Z16	X17	Y17	Z17	X18	Y18	Z18	X19	Y19	Z19	X20	Y20	Z20	X21	Y21	Z21	X22	Y22	Z22	X23	Y23	Z23	X24	Y24	Z24	X25	Y25	Z25	X26	Y26	Z26	X27	Y27	Z27	X28	Y28	Z28	X29	Y29	Z29	X30	Y30	Z30	X31	Y31	Z31	X32	Y32	Z32	X33	Y33	Z33	X34	Y34	Z34	X35	Y35	Z35	X36	Y36	Z36	X37	Y37	Z37	X38	Y38	Z38	X39	Y39	Z39	X40	Y40	Z40	X41	Y41	Z41	X42	Y42	Z42	X43	Y43	Z43	X44	Y44	Z44	X45	Y45	Z45	X46	Y46	Z46	X47	Y47	Z47	X48	Y48	Z48	
1001	5.0050	726.172808	1226.089292	-40.530653	756.688372	1175.654070	-352.382508	780.942411	1268.472273	-204.486876	684.936764	1119.484558	-176.736087	554.569407	1049.171928	63.673540	712.899610	931.657938	-42.100718	556.467078	1049.836236	-490.960472	712.426617	929.549032	-406.896372	199.463139	1253.842867	-263.552786	363.997032	1143.136956	-398.131825	303.027962	1220.828213	-85.555340	359.192941	1094.414432	-358.259303	327.254810	1165.402916	-105.960304	240.020483	1286.044954	-247.501487	241.765494	1267.235041	-304.166849	274.296187	1171.719058	-47.087192	303.864845	1074.178538	-430.157014	355.757425	1073.279383	-27.848120	432.643117	1025.441565	-23.780222	472.034062	950.697990	-14.031473	455.750099	1048.010269	-43.437784	522.330482	854.171888	-33.619270	519.021577	823.373751	-146.751456	451.032581	745.240941	-10.654116	416.266076	667.195137	-31.431629	348.733088	613.152300	-35.336078	438.314314	656.005630	-63.624410	288.516733	544.212017	-43.796825	217.698821	536.581727	-91.911822	464.454729	413.128038	-101.609071	370.144933	431.403928	-27.375214	299.602768	948.231590	-438.000474	329.062356	867.751107	-423.686127	364.584926	872.013143	-413.619307	313.222978	780.932548	-409.098876	297.537161	664.014894	-382.403469	280.142369	658.589974	-264.304917	103.521433	354.399021	-367.211524	47.031243	387.986014	-323.719337	117.335312	204.518259	-397.868467	247.648014	572.035827	-402.325268	223.172163	491.025872	-381.502224	161.039338	427.382090	-381.067682	244.325326	483.517945	-349.046194	168.541440	133.089977	-342.198035	-203.670313	869.884762	-206.346297	-49.873329	84.553427	-414.372398	-49.646369	80.265862	-17.099502	
1002	5.0100	726.572080	1224.293194	-39.911855	756.984291	1176.928195	-353.477747	781.722968	1268.019085	-204.716806	684.914886	1119.349914	-177.985494	552.280866	1048.207512	62.594250	712.124889	931.837031	-42.491726	556.104323	1049.852734	-491.159819	712.592658	929.037570	-405.769014	199.941257	1255.374556	-263.447682	363.935683	1144.767411	-398.131988	303.058394	1219.724681	-85.067727	358.783215	1095.871617	-357.996232	326.838192	1164.276983	-105.915488	240.909700	1287.271927	-247.145405	242.807191	1269.064054	-304.266035	272.988452	1170.277709	-47.358313	304.593212	1076.274287	-430.687406	352.343810	1069.544561	-27.239957	428.398922	1019.508804	-22.869443	466.153967	942.772437	-14.473514	452.919551	1041.926225	-42.963761	512.926270	845.959925	-32.843488	511.545565	814.864785	-144.500467	444.274319	735.384383	-9.814847	411.343110	656.629351	-31.130856	345.279080	600.981540	-35.200438	433.479248	646.368092	-63.499300	286.592548	531.183633	-44.777963	216.542073	520.131472	-92.608201	469.034471	409.223072	-100.785964	373.511836	422.767897	-27.037734	302.392549	950.431685	-435.725726	333.508210	870.362537	-421.413070	368.716391	875.419362	-411.133359	319.171501	783.017957	-405.017231	304.286501	666.824294	-381.703245	285.640954	663.503392	-263.239637	102.105604	362.245718	-367.577534	45.857797	397.421717	-323.864977	111.734506	212.229726	-397.781870	252.378214	575.524823	-402.174423	225.675529	495.297768	-381.067016	162.045708	433.099118	-380.926647	246.585047	487.207784	-348.523768	161.271324	139.736543	-341.980845	-203.729392	869.697470	-206.220482	-49.850296	84.498977	-414.360853	-49.651820	80.204916	-17.067052	
1003	5.0150	727.092105	1221.764579	-40.535001	757.276648	1178.710943	-354.610756	782.649643	1267.747645	-205.320878	685.163229	1119.154561	-180.627653	550.570121	1047.481762	61.774583	711.716759	931.823094	-42.820633	556.763721	1050.492884	-491.946738	712.367740	929.036869	-406.262673	200.558829	1256.596013	-262.896671	363.799128	1146.165946	-398.194654	302.979503	1218.742542	-84.614778	358.552688	1097.350621	-357.853664	326.488906	1163.306812	-105.782683	241.706407	1288.000014	-246.700584	243.407995	1270.182245	-303.310967	271.342416	1168.309325	-47.031180	305.710343	1078.499480	-431.119224	349.243565	1065.305140	-26.468903	423.563766	1012.712293	-22.318862	459.720645	934.558817	-14.727683	448.367540	1034.311642	-41.112958	503.532640	836.777904	-31.738660	503.607147	805.720659	-142.659860	437.118972	725.059868	-9.560480	406.418452	645.389894	-31.031063	342.156579	587.594777	-35.821466	428.666992	635.935694	-63.555857	284.871811	517.870857	-45.045819	215.892732	503.829506	-94.258123	473.333641	404.079299	-98.992744	376.218335	413.290760	-26.484665	305.261861	952.737242	-433.744095	338.062853	873.273665	-419.431981	372.821917	879.046664	-408.412118	325.625661	785.493455	-403.477512	311.362189	670.219171	-381.484486	292.541216	667.773719	-262.503634	100.302651	370.645372	-368.166421	44.509595	407.505305	-324.420580	106.478720	220.725411	-397.781329	257.641514	578.740851	-402.371150	228.568275	500.186543	-381.556646	163.257978	438.901335	-380.438992	248.753623	490.899756	-347.565741	154.663596	147.358024	-341.902366	-203.623217	869.718001	-206.172652	-49.824453	84.504219	-414.362069	-49.617657	80.166777	-17.085207	
1004	5.0200	727.976022	1219.333301	-40.642333	757.434784	1180.595047	-355.699864	783.699811	1267.556204	-206.259734	685.652101	1119.067795	-183.119294	549.473792	1046.648979	61.329767	711.685651	931.550327	-43.152397	557.582790	1051.160704	-492.839326	712.276132	929.384085	-407.616301	200.950308	1257.480520	-262.427252	363.693862	1147.473293	-398.396810	303.148845	1216.839820	-83.760609	358.340831	1098.542793	-357.672789	327.338736	1162.007992	-105.705933	242.278555	1288.208362	-244.934499	243.686707	1270.611428	-301.501735	270.292296	1165.275603	-48.268438	306.915130	1080.618884	-431.419087	346.184034	1060.614134	-25.766186	418.380045	1005.476480	-21.290787	452.444057	926.139914	-14.477816	444.498376	1026.245197	-40.300830	494.079529	826.940362	-31.066452	494.273911	796.994150	-141.051712	429.812937	714.063394	-9.514898	401.611098	633.576846	-31.027628	338.698267	574.125616	-36.901253	424.015217	625.090883	-63.844392	283.974815	503.703899	-46.342866	216.053259	487.386463	-96.608867	477.306287	397.495062	-96.549872	378.529815	402.935525	-25.863410	308.431375	955.124442	-432.090323	342.908396	876.330742	-417.796153	377.221955	882.744015	-405.912148	333.071775	788.663970	-404.973611	319.114718	673.623126	-381.241134	300.448828	671.360236	-262.323090	98.204024	379.685889	-368.732234	42.935845	417.807979	-324.933237	101.677706	229.749498	-397.881029	263.560097	581.816694	-402.700526	231.509126	504.611777	-381.122754	164.301135	445.514013	-380.467286	250.956458	494.976294	-346.759231	148.649898	155.874181	-341.633861	-203.340308	869.838258	-206.164962	-49.805692	84.553198	-414.367902	-49.606604	80.185057	-17.115131	
1005	5.0250	729.312563	1216.692077	-41.030432	757.470041	1182.475285	-356.584084	784.778522	1267.501548	-207.301356	686.622505	1118.829039	-185.762717	548.863680	1045.992227	61.664915	711.820152	931.191903	-43.415155	558.571049	1051.862533	-493.968863	712.262337	929.883173	-409.408486	201.148219	1258.055663	-261.503359	363.696896	1148.648776	-398.628708	303.414221	1214.194673	-82.836159	358.240199	1099.502397	-357.573864	326.721631	1159.236663	-105.399236	242.824071	1288.204565	-243.493374	244.407286	1271.432719	-300.570491	268.696455	1162.534676	-48.382575	308.515428	1082.857107	-431.658358	342.648264	1055.205062	-24.935706	411.928359	998.885960	-18.689487	444.794654	917.399025	-14.755383	439.866345	1018.112423	-38.223315	484.126146	816.675905	-30.166934	484.777253	786.567316	-139.635416	422.635155	702.683047	-9.541029	396.915916	621.366824	-31.506001	335.762138	560.188746	-37.730244	419.553686	613.832867	-64.340163	283.552076	489.493226	-47.888404	216.547807	471.472363	-98.744942	480.691640	389.752964	-95.360551	380.942297	392.223134	-25.784369	311.919859	957.552123	-431.177457	348.156888	879.526216	-416.578812	382.127805	886.673064	-403.987461	339.929276	791.062049	-405.014737	327.467416	677.005722	-380.902200	309.155475	674.047666	-262.463849	96.246232	389.241832	-369.343880	41.320301	428.512550	-325.813999	97.489766	239.240888	-397.869225	269.870608	584.801782	-402.900420	234.781400	509.813260	-381.166217	165.305872	452.790349	-380.535508	253.111609	499.494733	-345.803996	143.528476	164.922739	-341.141393	-203.010572	869.932274	-206.100772	-49.773578	84.573104	-414.375882	-49.557873	80.203919	-17.095490	
1006	5.0300	730.747870	1213.964347	-41.662330	757.417079	1184.300482	-357.542725	785.767753	1267.540998	-208.506427	687.778664	1118.517844	-188.589846	548.903044	1044.994865	62.284483	711.956901	930.787552	-43.617433	560.126078	1052.653826	-494.869650	712.270858	930.338090	-411.217817	201.417927	1257.958752	-261.325243	363.792208	1149.970337	-398.812202	302.171892	1211.875515	-82.156405	358.224897	1100.346036	-357.533912	325.856345	1157.302489	-105.243706	243.264562	1287.818252	-241.935872	244.917802	1271.800200	-299.583312	266.993168	1159.260705	-48.251511	310.239827	1084.940133	-431.782302	338.358443	1049.586688	-23.659693	406.378096	991.176071	-17.696601	436.876861	908.721838	-14.450109	435.369046	1009.970802	-36.871719	473.876408	806.067803	-29.370372	475.016625	776.886537	-138.966029	415.435713	690.893314	-9.893166	392.373695	609.129931	-32.511107	333.075960	546.083255	-39.163180	415.213881	602.324045	-65.205307	283.994410	475.799883	-49.010368	217.096557	455.962326	-99.660439	483.444660	381.718077	-96.035391	384.077745	381.909673	-26.486920	315.966746	960.129833	-430.038489	353.878967	882.998391	-415.798894	387.385852	890.995028	-402.365023	347.904945	794.312139	-405.525805	336.267984	679.989352	-380.607856	318.479113	675.972763	-262.921426	94.731497	399.194190	-370.024420	40.039281	439.241433	-326.993098	94.113134	248.775938	-397.442591	276.166528	588.212047	-403.095644	237.686467	514.620236	-380.394140	166.318270	460.674327	-380.809948	255.419456	504.230256	-345.170741	139.170314	174.341353	-340.436620	-202.756551	869.945666	-205.975694	-49.707360	84.566794	-414.386084	-49.484120	80.180850	-17.079149	
